HIERARCHY
ROOT Hips
{
 OFFSET 0.000000 0.000000 0.000000
 CHANNELS 6 Xposition Yposition Zposition Yrotation Xrotation Zrotation
 JOINT Chest
 {
  OFFSET 0.000000 10.678932 0.006280
  CHANNELS 3 Yrotation Xrotation Zrotation
  JOINT Chest2
  {
   OFFSET 0.000000 10.491159 -0.011408
   CHANNELS 3 Yrotation Xrotation Zrotation
   JOINT Chest3
   {
    OFFSET 0.000000 9.479342 0.000000
    CHANNELS 3 Yrotation Xrotation Zrotation
    JOINT Chest4
    {
     OFFSET 0.000000 9.479342 0.000000
     CHANNELS 3 Yrotation Xrotation Zrotation
     JOINT Neck
     {
      OFFSET 0.000000 13.535332 0.000000
      CHANNELS 3 Yrotation Xrotation Zrotation
      JOINT Head
      {
       OFFSET 0.000000 8.819083 -0.027129
       CHANNELS 3 Yrotation Xrotation Zrotation
       End Site
       {
        OFFSET 0.000000 16.966594 -0.014170
       }
      }
     }
     JOINT RightCollar
     {
      OFFSET -3.012546 7.545150 0.000000
      CHANNELS 3 Yrotation Xrotation Zrotation
      JOINT RightShoulder
      {
       OFFSET -13.683099 0.000000 0.000000
       CHANNELS 3 Yrotation Xrotation Zrotation
       JOINT RightElbow
       {
        OFFSET -26.359998 0.000000 0.000000
        CHANNELS 3 Yrotation Xrotation Zrotation
        JOINT RightWrist
        {
         OFFSET -21.746691 0.000000 0.008601
         CHANNELS 3 Yrotation Xrotation Zrotation
         End Site
         {
          OFFSET -16.348058 0.000000 0.000000
         }
        }
       }
      }
     }
     JOINT LeftCollar
     {
      OFFSET 3.012546 7.545150 0.000000
      CHANNELS 3 Yrotation Xrotation Zrotation
      JOINT LeftShoulder
      {
       OFFSET 13.683099 0.000000 0.000000
       CHANNELS 3 Yrotation Xrotation Zrotation
       JOINT LeftElbow
       {
        OFFSET 26.359998 0.000000 0.000000
        CHANNELS 3 Yrotation Xrotation Zrotation
        JOINT LeftWrist
        {
         OFFSET 21.746691 0.000000 0.008601
         CHANNELS 3 Yrotation Xrotation Zrotation
         End Site
         {
          OFFSET 16.348058 0.000000 0.000000
         }
        }
       }
      }
     }
    }
   }
  }
 }
 JOINT RightHip
 {
  OFFSET -8.622479 -0.030774 -0.003140
  CHANNELS 3 Yrotation Xrotation Zrotation
  JOINT RightKnee
  {
   OFFSET 0.000000 -37.209160 -0.002630
   CHANNELS 3 Yrotation Xrotation Zrotation
   JOINT RightAnkle
   {
    OFFSET 0.000000 -37.343279 -0.058479
    CHANNELS 3 Yrotation Xrotation Zrotation
    JOINT RightToe
    {
     OFFSET 0.000000 -8.903465 15.088070
     CHANNELS 3 Yrotation Xrotation Zrotation
     End Site
     {
      OFFSET 0.000000 -1.471739 6.884388
     }
    }
   }
  }
 }
 JOINT LeftHip
 {
  OFFSET 8.622479 -0.030774 -0.003140
  CHANNELS 3 Yrotation Xrotation Zrotation
  JOINT LeftKnee
  {
   OFFSET 0.000000 -37.209160 -0.002630
   CHANNELS 3 Yrotation Xrotation Zrotation
   JOINT LeftAnkle
   {
    OFFSET 0.000000 -37.343279 -0.058479
    CHANNELS 3 Yrotation Xrotation Zrotation
    JOINT LeftToe
    {
     OFFSET 0.000000 -8.903465 15.088070
     CHANNELS 3 Yrotation Xrotation Zrotation
     End Site
     {
      OFFSET 0.000000 -1.471739 6.884388
     }
    }
   }
  }
 }
}
MOTION
Frames: 14
Frame Time: 0.200000
-11.488392 78.797149 -21.625621 -145.404628 -10.897071 -6.477897 2.777761 10.184299 1.524035 0.183655 0.754477 0.077567 0.284865 1.168302 0.121157 2.195549 8.682562 1.048954 -6.120091 15.774332 2.377796 -12.264790 -6.390166 6.648286 -8.401047 -0.575349 -11.139433 14.572455 -30.266471 42.514342 47.145529 -9.779707 -4.293498 -7.216208 -2.878710 -17.512714 -5.007974 -9.119929 10.029607 18.118841 -27.160964 -60.637046 -70.330143 -8.619639 -2.126593 16.062611 10.761538 20.811622 -5.307594 7.356665 -12.256277 3.524918 23.388245 1.367186 -3.277185 -20.745833 10.709484 -0.000368 -0.079809 0.656051 -3.487106 -16.732475 37.498023 25.226385 60.857117 8.478000 -0.620964 5.964878 -26.855890 -1.060267 -24.233766 4.338597
-15.439559 76.133476 -17.891203 -159.301175 -6.435538 0.210956 6.538271 10.204599 3.008650 0.532578 0.901293 0.187310 0.810805 1.369367 0.288065 5.303824 8.620655 2.173314 -5.513672 12.991667 -3.369290 -9.081407 -12.084021 -4.128680 -2.539001 -0.013071 -3.272615 8.291970 -22.814678 48.478655 32.755603 -6.643244 1.856865 -4.704834 -4.342641 -19.691741 -2.276256 -13.511048 19.308102 22.590708 -33.427177 -55.237447 -85.802108 -21.662492 9.757888 16.171254 8.026267 17.274495 -6.329303 -10.376925 -20.688295 16.463512 31.142106 0.743125 0.902451 -21.859748 15.646128 -0.269096 0.611138 0.070340 -32.290831 -13.578038 18.912265 -9.250357 62.674858 -0.786097 -5.981473 -4.166606 -20.545637 -0.661109 -13.306728 -4.357788
-13.996810 77.425036 -17.226596 -135.760655 -9.880805 -11.700080 2.097744 10.684901 8.014342 0.138761 1.050338 0.748996 0.213289 1.574655 1.124451 1.653539 8.957953 6.574354 -9.035394 14.674737 1.290138 -17.426503 -8.213181 5.822540 1.062994 5.802101 -4.910045 34.628615 -32.790502 51.425871 46.271171 9.112947 1.674397 -8.317726 -1.519365 -15.668742 -27.301872 -13.947050 18.561517 -25.606379 -37.024659 -46.441116 -93.409605 -12.816134 -7.894372 20.055635 1.282896 13.060139 -3.672624 15.287240 -10.196355 -7.193612 10.742175 -0.014168 -3.579675 -11.075578 18.317644 0.031746 -0.153169 -0.193905 4.331932 -25.531426 44.995696 21.990016 62.602484 -2.497011 -16.301935 3.418608 -10.058942 -1.448446 -22.790045 8.232514
-14.366707 74.814977 -13.597274 -138.705021 -11.373174 -10.667462 3.150416 13.639760 6.810414 0.433664 1.564493 0.769010 0.641876 2.287503 1.129623 3.567451 10.953273 5.773500 -9.121103 11.282528 1.216505 -18.035706 -14.460719 6.280560 8.232423 8.041856 -8.391073 70.181416 -42.342551 36.072679 54.330405 10.541424 1.905269 -4.619253 -5.419937 -14.337425 -32.518804 -14.773594 21.640006 -43.395381 -33.933952 -38.484665 -98.957895 -14.248684 -22.543378 13.887496 -4.133317 11.884196 -5.101039 1.010984 -15.260859 -1.444484 33.967092 -3.157632 2.694004 -16.072912 17.878964 -0.571703 -1.893009 -0.371687 1.869281 -21.256441 36.483580 14.011830 63.293583 -6.541789 -1.191433 -23.239824 -8.235392 0.423280 -0.173118 0.751881
-10.227640 86.281491 -8.897736 -156.322797 -11.479760 -2.891128 3.206442 13.065975 0.885322 0.302226 1.290940 0.034689 0.452933 1.933076 0.054491 2.619492 10.949251 0.517503 -5.023615 10.899094 0.472894 -9.897401 -15.725505 3.150963 -5.435283 -5.035848 -10.749732 15.644173 -29.734162 35.651310 24.178455 -22.032386 -0.576236 -5.691167 -3.461702 -12.918567 -5.489762 -14.034846 34.839073 -1.727254 -20.064017 -35.327393 -23.761727 -26.129311 -0.653588 3.269535 9.723778 16.599015 -7.838947 -17.757464 -14.964477 1.580591 60.125393 1.813546 11.873887 6.826865 16.853134 -0.450087 -6.800981 -2.905492 0.874711 -0.669360 19.598762 29.029328 20.939091 -0.136570 5.510788 12.336382 -10.414976 -0.320948 -12.195083 2.184548
-0.342742 84.293970 -6.193653 -153.166028 -0.800287 1.995776 0.009885 7.097743 -2.046421 0.001933 0.398351 -0.119982 0.002689 0.636071 -0.191579 -0.073935 6.526974 -1.972550 -3.377737 7.064053 1.106798 -7.319204 -22.901973 3.972617 -4.875088 -6.331410 -17.590134 -3.731883 -19.713734 27.212274 6.390855 -24.774187 1.671988 -3.620000 -1.785897 -15.397588 5.656307 -6.467983 27.890659 12.096534 -11.828763 -35.365490 -8.636627 -14.330679 0.067782 2.970342 13.196718 17.371881 -7.381716 -2.707102 -5.049850 -2.256663 24.821713 2.444568 -3.773816 -15.425367 -4.066592 -0.033788 -3.764093 4.814619 -8.774889 -34.330143 21.686949 -109.299872 83.294497 -122.915215 2.820469 -14.913045 -9.320623 0.803111 -2.391705 2.757264
2.136127 85.077818 -6.175170 -161.465258 -2.883458 -0.671986 -0.013129 3.849622 -0.657089 0.000718 0.108217 -0.005423 0.001190 0.180158 -0.009027 0.018596 3.652669 -0.182521 -0.843848 9.489640 1.205109 -2.218865 -18.528921 2.752755 0.527028 3.176846 7.696769 11.934177 -9.017266 69.683335 1.376554 -13.071796 4.357890 -1.498150 -6.042352 -15.606388 0.387246 9.095660 -7.732969 -2.873636 -11.302997 -75.314147 3.941579 -8.500580 3.325124 10.484375 3.429377 14.107049 -3.514540 5.739366 -0.303639 3.832204 6.905083 0.851401 -5.885901 -8.447929 -4.082434 -0.078516 -0.771002 -0.207028 -12.463137 7.663880 -5.053632 19.828491 8.231261 0.894963 3.065330 -11.783295 -0.610024 0.102927 3.603984 0.242391
5.527063 84.824740 -8.311748 -153.841578 -8.924187 0.757974 6.738012 9.758919 -3.066614 0.639637 0.855822 -0.296737 0.967894 1.298535 -0.446084 5.882312 8.176555 -2.425949 -6.980748 8.558324 4.715082 -15.965686 -19.193759 12.608211 6.805550 2.626968 4.245030 45.535927 -8.787100 75.737457 -7.050527 20.759356 1.791881 -18.411991 8.419864 17.523182 -6.736078 3.003175 -2.533987 -21.810080 -0.049827 -71.021923 -14.071722 33.811613 -1.810947 5.082476 5.489008 14.911882 -5.267382 3.487411 -3.092513 -8.597203 24.207588 1.500851 1.639807 -13.941520 0.315740 0.010811 -2.195373 -2.642916 -11.987367 13.099001 -3.610806 18.396399 6.175546 0.335809 -0.874762 -7.471057 -5.910189 -0.003906 -0.084115 -0.280259
10.684359 80.751566 -16.625729 -135.029297 -10.620851 -7.529958 -1.902822 8.942343 6.962817 -0.262482 0.716898 0.298438 -0.403788 1.107638 0.459504 -2.743278 8.106170 3.174877 -5.501112 15.192786 -4.032289 -8.774050 -8.028965 -5.474136 3.180168 4.150400 -9.378627 23.970139 -27.476969 47.700404 123.952448 -12.084035 9.850336 -5.557790 -3.656701 31.008634 0.473593 7.735373 13.318103 -21.095113 22.355714 -84.470444 -97.498250 37.760766 -42.125832 -4.039656 5.276036 10.913921 9.368640 -3.535451 4.526572 -6.397732 42.418702 4.506469 7.112268 -10.955172 3.881854 -0.971818 -16.205182 -6.524647 3.572635 -32.040248 40.063500 24.047322 82.430949 5.386969 -19.287678 6.626547 -26.506157 1.756195 -3.175238 6.475026
12.564140 83.169073 -19.376803 -125.749198 -5.444237 -4.746990 -7.256411 4.465844 6.112801 -0.578453 0.321807 0.561378 -0.888981 0.497630 0.862661 -6.102640 3.780584 5.911802 -5.315452 17.516228 -4.033645 -8.432590 -3.720382 -5.629500 -2.734711 4.821325 3.854455 -34.412334 -19.922951 86.230088 107.612774 -37.101641 -30.858934 43.047739 0.396190 -43.189946 5.003985 7.716284 6.867657 -24.073874 22.098831 -87.002137 -95.551947 32.415104 -39.449223 -5.578007 2.979595 11.041833 5.916942 3.684720 6.332830 -10.009734 22.523159 2.405967 0.841033 -15.857031 -2.976318 0.161078 -2.292256 -0.760851 6.275487 -29.062796 39.731043 28.689675 72.499487 1.468072 -9.316949 15.355471 -19.526497 -1.739923 -0.464145 -4.356436
11.126246 86.184558 -18.751481 -144.147448 -11.027483 2.368762 5.192842 10.925081 0.180736 0.441321 0.951668 -0.017576 0.671353 1.447881 -0.023834 4.316587 9.258707 0.142456 -7.891378 15.012600 -0.575485 -14.555666 -7.979269 1.883796 8.277854 3.122479 3.534120 28.792373 -16.376789 60.087828 60.810569 -13.096401 15.285057 -15.709316 -9.521410 3.765338 -0.826308 9.266163 13.065021 -16.723571 17.852138 -74.851637 -110.149876 29.253600 -42.554420 -7.767124 6.337609 4.929896 -0.635637 2.139300 -3.700089 -6.803300 36.784534 2.511455 2.806054 -7.426365 9.554587 0.620552 -12.663530 -12.493211 2.128827 0.944746 15.082700 30.322720 34.843224 1.889686 -1.082894 11.448656 -10.896488 0.283237 -25.879192 -1.451328
13.889847 79.684968 -23.158586 -127.750723 -4.594032 -3.701830 -6.114568 6.427539 4.759504 -0.482776 0.484786 0.479644 -0.742989 0.749456 0.738147 -5.131341 5.584821 5.095008 -5.633449 14.843833 -4.308743 -8.917285 -8.685448 -5.928515 -1.970359 0.173607 3.785649 -30.856240 -27.360750 81.566491 118.292798 -23.582145 -20.598333 41.441965 -6.436622 -31.864282 5.994702 9.676147 6.410071 -21.526692 22.503327 -86.348098 -96.833790 30.708237 -37.755083 -8.977741 2.689879 8.091165 4.541887 -0.918005 9.899018 -12.504195 36.179522 4.601220 -0.525917 -24.922985 -7.090170 0.115947 -4.521144 -1.689258 -7.128450 -43.182791 48.829312 -6.584399 88.850216 -29.963805 -6.171900 12.670432 -13.033309 1.004156 0.491894 2.600379
10.391955 87.790822 -26.125978 -148.979156 -5.955471 1.820847 5.366016 9.081823 0.993218 0.401010 0.683898 0.045138 0.620668 1.057934 0.071863 4.637270 7.782116 0.804634 -7.146038 14.430127 -2.959964 -12.285034 -9.340994 -2.798450 6.011785 4.162853 6.326579 24.390551 -15.731981 66.274468 40.195648 -35.093133 18.889891 16.070759 -17.016066 -35.384605 2.693172 7.963980 13.384771 -16.573217 20.798346 -81.049776 -103.235168 27.245302 -39.041911 -7.885113 4.158992 6.069172 -2.322636 -0.999755 -2.511393 -5.576262 33.107030 1.928640 1.395261 -1.886288 11.170130 0.250435 -13.967279 -13.619540 -4.294638 4.413180 9.310196 36.207481 14.674402 0.681869 1.702573 16.252557 -14.616962 -0.692962 -20.076913 3.625634
13.409269 78.570388 -31.493881 -140.596058 -9.177710 -2.512429 -0.185868 10.784168 5.123185 -0.012165 0.878257 0.442017 -0.015853 1.341666 0.675205 0.190854 8.868609 4.489793 -5.224249 12.587153 -4.289633 -8.152391 -12.870863 -5.981960 4.394783 -4.040722 -2.478115 -11.590278 -34.009727 66.864045 132.735469 -28.486744 -17.899242 27.976703 -19.970889 -7.324335 6.847958 5.519755 10.788859 -16.692273 24.913809 -74.419454 -117.329022 19.132857 -43.480288 8.628039 5.851615 -36.006489 4.387311 -6.335540 2.100670 -5.951709 46.935818 5.176129 4.273760 -25.432922 -2.571026 0.153957 -5.686183 -4.493065 -10.671096 -37.811802 48.844782 -144.637258 86.765736 -162.889218 -2.788223 10.446526 -6.976773 -0.400940 -0.511625 -0.976572
